<svg id="visual" viewBox="0 0 900 600" width="900" height="600" xmlns="http://www.w3.org/2000/svg" xmlns:xlink="http://www.w3.org/1999/xlink" version="1.1"><rect x="0" y="0" width="900" height="600" fill="#ffffff"></rect><path d="M0 408L21.5 399.3C43 390.7 86 373.3 128.8 374C171.7 374.7 214.3 393.3 257.2 407C300 420.7 343 429.3 385.8 434.7C428.7 440 471.3 442 514.2 439.3C557 436.7 600 429.3 642.8 429.2C685.7 429 728.3 436 771.2 430.3C814 424.7 857 406.3 878.5 397.2L900 388L900 601L878.5 601C857 601 814 601 771.2 601C728.3 601 685.7 601 642.8 601C600 601 557 601 514.2 601C471.3 601 428.7 601 385.8 601C343 601 300 601 257.2 601C214.3 601 171.7 601 128.8 601C86 601 43 601 21.5 601L0 601Z" fill="#b78aef"></path><path d="M0 394L21.5 404.5C43 415 86 436 128.8 447.3C171.7 458.7 214.3 460.3 257.2 457.8C300 455.3 343 448.7 385.8 440.3C428.7 432 471.3 422 514.2 425.7C557 429.3 600 446.7 642.8 448.8C685.7 451 728.3 438 771.2 436.2C814 434.3 857 443.7 878.5 448.3L900 453L900 601L878.5 601C857 601 814 601 771.2 601C728.3 601 685.7 601 642.8 601C600 601 557 601 514.2 601C471.3 601 428.7 601 385.8 601C343 601 300 601 257.2 601C214.3 601 171.7 601 128.8 601C86 601 43 601 21.5 601L0 601Z" fill="#b079f0"></path><path d="M0 464L21.5 468C43 472 86 480 128.8 483.3C171.7 486.7 214.3 485.3 257.2 477.7C300 470 343 456 385.8 450.2C428.7 444.3 471.3 446.7 514.2 453C557 459.3 600 469.7 642.8 473C685.7 476.3 728.3 472.7 771.2 468.2C814 463.7 857 458.3 878.5 455.7L900 453L900 601L878.5 601C857 601 814 601 771.2 601C728.3 601 685.7 601 642.8 601C600 601 557 601 514.2 601C471.3 601 428.7 601 385.8 601C343 601 300 601 257.2 601C214.3 601 171.7 601 128.8 601C86 601 43 601 21.5 601L0 601Z" fill="#a968f0"></path><path d="M0 526L21.5 522.7C43 519.3 86 512.7 128.8 509.7C171.7 506.7 214.3 507.3 257.2 509.7C300 512 343 516 385.8 519C428.7 522 471.3 524 514.2 518C557 512 600 498 642.8 492C685.7 486 728.3 488 771.2 488.3C814 488.7 857 487.3 878.5 486.7L900 486L900 601L878.5 601C857 601 814 601 771.2 601C728.3 601 685.7 601 642.8 601C600 601 557 601 514.2 601C471.3 601 428.7 601 385.8 601C343 601 300 601 257.2 601C214.3 601 171.7 601 128.8 601C86 601 43 601 21.5 601L0 601Z" fill="#a255ef"></path><path d="M0 570L21.5 563C43 556 86 542 128.8 539.7C171.7 537.3 214.3 546.7 257.2 546.3C300 546 343 536 385.8 535C428.7 534 471.3 542 514.2 545.8C557 549.7 600 549.3 642.8 546C685.7 542.7 728.3 536.3 771.2 539.7C814 543 857 556 878.5 562.5L900 569L900 601L878.5 601C857 601 814 601 771.2 601C728.3 601 685.7 601 642.8 601C600 601 557 601 514.2 601C471.3 601 428.7 601 385.8 601C343 601 300 601 257.2 601C214.3 601 171.7 601 128.8 601C86 601 43 601 21.5 601L0 601Z" fill="#9c3fee"></path></svg>